<svg xmlns="http://www.w3.org/2000/svg" viewBox="0 0 242.04 58.49"><defs><style>.cls-1,.cls-2{fill:#fff;}.cls-2{fill-rule:evenodd;}</style></defs><title>Layer 1 (4)</title><g id="Layer_2" data-name="Layer 2"><g id="Layer_1-2" data-name="Layer 1">
<path class="cls-1" d="M141.75,2.09h2.92L156,28.41h-2.87l-3.78-8.84H137l-3.81,8.83h-2.83L141.75,2.09Zm6.49,15.1-5-12.09-5.15,12.09Zm10.82-15.1h6.27a37.34,37.34,0,0,1,4.31.2,8.6,8.6,0,0,1,3.17,1.08,7.83,7.83,0,0,1,3,3,8.63,8.63,0,0,1,1.05,4.27,7.72,7.72,0,0,1-2.28,5.56,7.35,7.35,0,0,1-5.47,2.35l7.41,9.83h-3.29l-8.94-11.93h1.49c1.26,0,2.22,0,2.89-.11a7.39,7.39,0,0,0,2.14-.6,5.64,5.64,0,0,0,3.42-5.34,5.82,5.82,0,0,0-2.46-4.72,5.84,5.84,0,0,0-2.58-1,23.82,23.82,0,0,0-3.37-.21h-4.17V28.41h-2.63V2.09Zm25,2.39H178V2.09h14.67V4.48h-6V28.41h-2.64V4.48Zm11.58-2.39H210V4.48H198.27V14h11.36v2.39H198.27V26H210v2.38H195.64V2.09Zm19.09,0h4.06l9.61,22.34L238,2.09H242V28.41h-2.63V5l-9.9,23.4h-2.25L217.36,5v23.4h-2.63V2.09Z"/>
<path class="cls-1" d="M155.62,33.71h2.7a11.12,11.12,0,0,1,1.58.09,3,3,0,0,1,1.18.46,3,3,0,0,1,.18,4.92,3.12,3.12,0,0,1-1.27.56,7.4,7.4,0,0,1-1.4.11h-1.94V44h-1V33.71Zm2.8,5.21a5.88,5.88,0,0,0,1.3-.11,3,3,0,0,0,.78-.31,1.73,1.73,0,0,0,.66-.73,2.12,2.12,0,0,0,.24-1,1.91,1.91,0,0,0-1.28-1.91,2.58,2.58,0,0,0-.68-.19,6.1,6.1,0,0,0-.8,0h-2v4.28Zm6,1.64a2.36,2.36,0,0,0,.89,1.84,2.92,2.92,0,0,0,2,.78,3.18,3.18,0,0,0,1.63-.45,2.62,2.62,0,0,0,1.1-1.21h1.07a3.84,3.84,0,0,1-1.44,1.91,3.78,3.78,0,0,1-2.27.74A3.9,3.9,0,0,1,164.56,43a3.82,3.82,0,0,1-1.17-2.83,3.86,3.86,0,0,1,1.15-2.81,3.81,3.81,0,0,1,2.83-1.16,3.76,3.76,0,0,1,1.68.38,4,4,0,0,1,1.38,1.09,3.52,3.52,0,0,1,.7,1.3,5.72,5.72,0,0,1,.19,1.57Zm5.86-.93a2.93,2.93,0,0,0-1-1.72,2.83,2.83,0,0,0-1.89-.71,2.92,2.92,0,0,0-1.92.69,2.81,2.81,0,0,0-1,1.74Zm3.33-2.31H172v-.94h1.59V33.71h1v2.67h1.77v.94h-1.77V44h-1V37.32Zm3.85-.94h1v1.1a2,2,0,0,1,.88-1,2.91,2.91,0,0,1,1.34-.3v1a2.11,2.11,0,0,0-1.38.53,2,2,0,0,0-.63.84,3.49,3.49,0,0,0-.15,1.14V44h-1V36.38ZM188.38,44h-1V42.82a2.32,2.32,0,0,1-1,1,3.32,3.32,0,0,1-1.51.33,3.24,3.24,0,0,1-1.41-.3,4.2,4.2,0,0,1-1.26-1.06,1.76,1.76,0,0,1-.44-.93,8.61,8.61,0,0,1-.11-1.48v-4h1v4a5.15,5.15,0,0,0,.08,1.05A2.27,2.27,0,0,0,185,43.18a2.23,2.23,0,0,0,1.87-.93,2.08,2.08,0,0,0,.36-.82,4.55,4.55,0,0,0,.1-1v-4h1V44Zm1.76-10.29h1v7.23l3.49-4.56H196L193,40.2l3.15,3.8h-1.33l-2.48-3-1.21,1.56V44h-1V33.71Zm7,0h1v3.77a2.21,2.21,0,0,1,1-.93,2.88,2.88,0,0,1,1.36-.33,3.3,3.3,0,0,1,2.6,1.17,2.78,2.78,0,0,1,.63,1.15,5.71,5.71,0,0,1,.17,1.45v4h-1V40a4.9,4.9,0,0,0-.08-1,2.2,2.2,0,0,0-.36-.8,2.22,2.22,0,0,0-.86-.71,2.58,2.58,0,0,0-1.11-.26,2.33,2.33,0,0,0-1.05.26,2.21,2.21,0,0,0-.83.68,1.84,1.84,0,0,0-.32.79,7.94,7.94,0,0,0-.07,1.06v4h-1V33.71Zm16.22,2.67h1v1.1a2.78,2.78,0,0,1,2.37-1.26,3.43,3.43,0,0,1,1.48.32,3.26,3.26,0,0,1,1.22.94,3.19,3.19,0,0,1,.57,1.17A5.93,5.93,0,0,1,220.1,40v4h-1V40a4,4,0,0,0-.12-1.13,2,2,0,0,0-.33-.68,2.29,2.29,0,0,0-2-1,2.39,2.39,0,0,0-1.05.25,2.08,2.08,0,0,0-.81.69,1.75,1.75,0,0,0-.34.79,7.94,7.94,0,0,0-.07,1.06v4h-1V36.38Zm-4.69-1.74h-1.75v-.93h2.78V44h-1V34.64Z"/>
<path class="cls-1" d="M134,50.51h1.51a6.75,6.75,0,0,1,.88.05,1.85,1.85,0,0,1,.66.27,1.54,1.54,0,0,1,.76,1.41,1.58,1.58,0,0,1-.66,1.34,1.83,1.83,0,0,1-.71.31,4,4,0,0,1-.78.06h-1.09v2.32H134V50.51Zm1.56,2.92a3.24,3.24,0,0,0,.73-.06,1.84,1.84,0,0,0,.43-.17,1,1,0,0,0,.38-.41,1.2,1.2,0,0,0,.13-.55,1.06,1.06,0,0,0-.72-1.07,1.82,1.82,0,0,0-.38-.11,2.89,2.89,0,0,0-.44,0h-1.12v2.39ZM180,50.51h1.55a4.73,4.73,0,0,1,1.24.15,2.63,2.63,0,0,1,1,.54,2.81,2.81,0,0,1,.76,1,2.72,2.72,0,0,1,.28,1.21,2.92,2.92,0,0,1-.24,1.17,3.15,3.15,0,0,1-.72,1,2.62,2.62,0,0,1-1.07.59,4.37,4.37,0,0,1-1.24.14H180V50.51Zm1.31,5.24a5.87,5.87,0,0,0,1.09-.07,2.35,2.35,0,0,0,1-.46,2.33,2.33,0,0,0,0-3.66,2.37,2.37,0,0,0-1-.45,6.29,6.29,0,0,0-1.1-.07h-.74v4.71ZM209,51h-1.33v-.53h3.21V51h-1.31v5.23H209V51ZM138.5,52H139v.62a1.06,1.06,0,0,1,.5-.54,1.47,1.47,0,0,1,.74-.17v.57a1.16,1.16,0,0,0-.77.29,1.11,1.11,0,0,0-.35.47,1.88,1.88,0,0,0-.08.64v2.38h-.58V52Zm6.6,2.1a2.23,2.23,0,0,1-.65,1.59,2.11,2.11,0,0,1-1.56.67,2.17,2.17,0,0,1-1.58-.65,2.07,2.07,0,0,1-.66-1.56,2.2,2.2,0,0,1,.65-1.59,2.16,2.16,0,0,1,1.59-.65,2.24,2.24,0,0,1,2.21,2.19Zm-3.87,0a1.64,1.64,0,0,0,1.66,1.65,1.56,1.56,0,0,0,1.17-.49,1.73,1.73,0,0,0,.46-1.21,1.62,1.62,0,0,0-.12-.64,1.45,1.45,0,0,0-.38-.53,1.63,1.63,0,0,0-2.31,0,1.66,1.66,0,0,0-.48,1.2Zm5-1.63h-.66V52h.66a1.47,1.47,0,0,1,.41-1.11,1.53,1.53,0,0,1,1.11-.39h.11V51h-.11a1,1,0,0,0-.69.22.83.83,0,0,0-.25.66V52h1.06v.52h-1.06v3.74h-.58V52.53Zm2.57,1.82a1.33,1.33,0,0,0,.5,1,1.63,1.63,0,0,0,1.1.43,1.77,1.77,0,0,0,.92-.25,1.46,1.46,0,0,0,.61-.67h.6A2.11,2.11,0,0,1,151.7,56a2.08,2.08,0,0,1-1.26.42,2.16,2.16,0,0,1-1.58-.65,2.13,2.13,0,0,1-.66-1.58,2.17,2.17,0,0,1,.64-1.57,2.12,2.12,0,0,1,1.58-.65,2.2,2.2,0,0,1,1,.21,2.36,2.36,0,0,1,.77.61,2.25,2.25,0,0,1,.39.73,3.31,3.31,0,0,1,.11.88Zm3.28-.52a1.66,1.66,0,0,0-.57-1,1.6,1.6,0,0,0-1.06-.39,1.67,1.67,0,0,0-1.07.38,1.56,1.56,0,0,0-.58,1Zm1.6,1.18a.8.8,0,0,0,.22.57.75.75,0,0,0,.55.23.72.72,0,0,0,.53-.2.63.63,0,0,0,.22-.5.71.71,0,0,0-.25-.56,1.51,1.51,0,0,0-.54-.25l-.44-.15a1,1,0,0,1-.38-.24,1,1,0,0,1-.24-.35,1.21,1.21,0,0,1,.26-1.31,1.25,1.25,0,0,1,.88-.33,1.13,1.13,0,0,1,.82.34,1.08,1.08,0,0,1,.35.81h-.57a.55.55,0,0,0-.19-.44.67.67,0,0,0-.47-.16.61.61,0,0,0-.43.17.59.59,0,0,0-.17.42.55.55,0,0,0,.24.48,1.77,1.77,0,0,0,.51.23,2.46,2.46,0,0,1,.83.4,1.06,1.06,0,0,1,.36.84,1.33,1.33,0,0,1-.38,1,1.38,1.38,0,0,1-1,.38,1.21,1.21,0,0,1-.91-.41,1.33,1.33,0,0,1-.38-1Zm3,0a.8.8,0,0,0,.22.57.75.75,0,0,0,.55.23.74.74,0,0,0,.54-.2.66.66,0,0,0,.21-.5.68.68,0,0,0-.25-.56,1.54,1.54,0,0,0-.53-.25l-.45-.15a1.12,1.12,0,0,1-.38-.24,1,1,0,0,1-.24-.35,1.13,1.13,0,0,1-.09-.45,1.16,1.16,0,0,1,.35-.86,1.25,1.25,0,0,1,.88-.33,1.15,1.15,0,0,1,.83.34,1.11,1.11,0,0,1,.35.81h-.58a.55.55,0,0,0-.19-.44.67.67,0,0,0-.47-.16.57.57,0,0,0-.42.17.55.55,0,0,0-.17.42.54.54,0,0,0,.23.48,1.91,1.91,0,0,0,.51.23,2.52,2.52,0,0,1,.84.4,1.06,1.06,0,0,1,.36.84,1.3,1.3,0,0,1-.39,1,1.37,1.37,0,0,1-1,.38,1.22,1.22,0,0,1-.92-.41,1.33,1.33,0,0,1-.38-1Zm2.8-3h.58v4.26h-.58V52Zm0-1.5h.58v1h-.58v-1Zm5.84,3.6a2.22,2.22,0,0,1-.64,1.59,2.13,2.13,0,0,1-1.57.67,2.19,2.19,0,0,1-1.58-.65,2.07,2.07,0,0,1-.66-1.56,2.22,2.22,0,0,1,2.24-2.24,2.24,2.24,0,0,1,2.21,2.19Zm-3.87,0a1.59,1.59,0,0,0,.48,1.17,1.63,1.63,0,0,0,1.18.48,1.53,1.53,0,0,0,1.17-.49,1.73,1.73,0,0,0,.47-1.21,1.62,1.62,0,0,0-.12-.64,1.58,1.58,0,0,0-.38-.53,1.62,1.62,0,0,0-1.14-.47,1.57,1.57,0,0,0-1.18.49,1.66,1.66,0,0,0-.48,1.2ZM166.14,52h.55v.62a1.54,1.54,0,0,1,1.32-.71,2,2,0,0,1,.83.18,1.82,1.82,0,0,1,.68.53,1.72,1.72,0,0,1,.32.65,3.07,3.07,0,0,1,.07.75v2.24h-.57V54a2,2,0,0,0-.07-.63,1.21,1.21,0,0,0-.18-.38,1.27,1.27,0,0,0-1.1-.55,1.33,1.33,0,0,0-1.05.52,1,1,0,0,0-.18.45,3.34,3.34,0,0,0,0,.59v2.24h-.58V52Zm9.1,4.26h-.56v-.8a1.63,1.63,0,0,1-.68.67,2.1,2.1,0,0,1-1,.23,2.38,2.38,0,0,1-1-.23,2.71,2.71,0,0,1-.89-.68,1.56,1.56,0,0,1-.26-.49,2.38,2.38,0,0,1-.16-.86,2.22,2.22,0,0,1,.17-.81,1.28,1.28,0,0,1,.28-.48,2.93,2.93,0,0,1,.91-.7,2.32,2.32,0,0,1,.93-.2,2.17,2.17,0,0,1,1,.22,1.49,1.49,0,0,1,.68.68V52h.56v4.26Zm-3.93-2.11a1.55,1.55,0,0,0,.51,1.17,1.73,1.73,0,0,0,1.21.48,1.57,1.57,0,0,0,1.16-.49,1.56,1.56,0,0,0,.49-1.16,1.66,1.66,0,0,0-.48-1.2,1.57,1.57,0,0,0-1.18-.49,1.67,1.67,0,0,0-1.21.49,1.64,1.64,0,0,0-.5,1.2Zm4.91-3.65h.58v5.76h-.58V50.51Zm13.86,5.76h-.56v-.8a1.69,1.69,0,0,1-.68.67,2.1,2.1,0,0,1-1,.23,2.38,2.38,0,0,1-1-.23,2.71,2.71,0,0,1-.89-.68,1.56,1.56,0,0,1-.26-.49,2.38,2.38,0,0,1-.16-.86,2.43,2.43,0,0,1,.16-.81,1.43,1.43,0,0,1,.29-.48,2.93,2.93,0,0,1,.91-.7,2.31,2.31,0,0,1,.92-.2,2.18,2.18,0,0,1,1,.22,1.49,1.49,0,0,1,.68.68V52h.56v4.26Zm-3.93-2.11a1.55,1.55,0,0,0,.51,1.17,1.72,1.72,0,0,0,1.21.48,1.57,1.57,0,0,0,1.16-.49,1.56,1.56,0,0,0,.49-1.16A1.66,1.66,0,0,0,189,53a1.58,1.58,0,0,0-1.19-.49,1.66,1.66,0,0,0-1.2.49,1.64,1.64,0,0,0-.5,1.2ZM191.06,52h.54v.62a1.55,1.55,0,0,1,1.33-.71,2,2,0,0,1,.83.18,1.82,1.82,0,0,1,.68.53,1.72,1.72,0,0,1,.32.65,3.07,3.07,0,0,1,.07.75v2.24h-.58V54a2.46,2.46,0,0,0-.06-.63A1,1,0,0,0,194,53a1.25,1.25,0,0,0-1.1-.55,1.3,1.3,0,0,0-.58.14,1.22,1.22,0,0,0-.46.38,1,1,0,0,0-.19.45,4.69,4.69,0,0,0,0,.59v2.24h-.57V52Zm9,3a2.34,2.34,0,0,1-.83,1,2.22,2.22,0,0,1-1.24.36,2.34,2.34,0,0,1-1.65-.64,2.19,2.19,0,0,1,0-3.17,2.38,2.38,0,0,1,2.9-.27,2,2,0,0,1,.83,1h-.65a1.67,1.67,0,0,0-.61-.6,1.56,1.56,0,0,0-.84-.23,1.77,1.77,0,0,0-1.23.47,1.54,1.54,0,0,0-.51,1.19,1.66,1.66,0,0,0,1.7,1.68,1.78,1.78,0,0,0,.85-.19,2.21,2.21,0,0,0,.64-.59Zm1.22-.68a1.33,1.33,0,0,0,.5,1,1.63,1.63,0,0,0,1.1.43,1.73,1.73,0,0,0,.91-.25,1.48,1.48,0,0,0,.62-.67h.6a2.26,2.26,0,0,1-2.07,1.48,2.2,2.2,0,0,1-1.59-.65,2.16,2.16,0,0,1-.65-1.58,2.2,2.2,0,0,1,2.22-2.22,2.15,2.15,0,0,1,.94.21,2.3,2.3,0,0,1,.78.61,2.25,2.25,0,0,1,.39.73,3.33,3.33,0,0,1,.1.88Zm3.28-.52a1.72,1.72,0,0,0-.58-1,1.57,1.57,0,0,0-1.05-.39,1.67,1.67,0,0,0-1.08.38,1.59,1.59,0,0,0-.57,1Zm7.26.52a1.36,1.36,0,0,0,.5,1,1.63,1.63,0,0,0,1.11.43,1.76,1.76,0,0,0,.91-.25,1.46,1.46,0,0,0,.61-.67h.6a2.15,2.15,0,0,1-.8,1.06,2.13,2.13,0,0,1-1.27.42,2.17,2.17,0,0,1-1.58-.65,2.22,2.22,0,0,1,0-3.15,2.1,2.1,0,0,1,1.58-.65,2.19,2.19,0,0,1,.94.21,2.36,2.36,0,0,1,.77.61,1.92,1.92,0,0,1,.39.73,3.31,3.31,0,0,1,.11.88Zm3.28-.52a1.66,1.66,0,0,0-.57-1,1.6,1.6,0,0,0-1.06-.39,1.67,1.67,0,0,0-1.07.38,1.61,1.61,0,0,0-.58,1Zm5.71,2.44h-.55v-.8a1.69,1.69,0,0,1-.68.67,2.1,2.1,0,0,1-1,.23,2.38,2.38,0,0,1-1-.23,2.71,2.71,0,0,1-.89-.68,1.56,1.56,0,0,1-.26-.49,2.38,2.38,0,0,1-.16-.86,2.2,2.2,0,0,1,.16-.81,1.63,1.63,0,0,1,.28-.48,3,3,0,0,1,.92-.7,2.31,2.31,0,0,1,.92-.2,2.18,2.18,0,0,1,1,.22,1.49,1.49,0,0,1,.68.68V52h.55v4.26Zm-3.92-2.11a1.55,1.55,0,0,0,.51,1.17,1.72,1.72,0,0,0,1.21.48,1.57,1.57,0,0,0,1.16-.49,1.56,1.56,0,0,0,.49-1.16,1.66,1.66,0,0,0-.48-1.2,1.58,1.58,0,0,0-1.19-.49,1.65,1.65,0,0,0-1.2.49,1.6,1.6,0,0,0-.5,1.2ZM226,55a2.36,2.36,0,0,1-.84,1,2.18,2.18,0,0,1-1.24.36,2.37,2.37,0,0,1-1.65-.64,2.19,2.19,0,0,1,0-3.17,2.4,2.4,0,0,1,2.91-.27,2,2,0,0,1,.82,1h-.64a1.7,1.7,0,0,0-.62-.6,1.55,1.55,0,0,0-.83-.23,1.73,1.73,0,0,0-1.23.47,1.54,1.54,0,0,0-.51,1.19,1.66,1.66,0,0,0,1.69,1.68,1.75,1.75,0,0,0,.85-.19,2.24,2.24,0,0,0,.65-.59Zm.8-4.52h.58v2.12a1.18,1.18,0,0,1,.53-.53,1.67,1.67,0,0,1,.76-.18,1.84,1.84,0,0,1,1.46.65,1.72,1.72,0,0,1,.35.65,3.23,3.23,0,0,1,.09.81v2.24H230V54a3,3,0,0,0,0-.57,1,1,0,0,0-.21-.45,1.16,1.16,0,0,0-.47-.4,1.51,1.51,0,0,0-.62-.14,1.35,1.35,0,0,0-.59.14,1.26,1.26,0,0,0-.47.38,1.12,1.12,0,0,0-.18.45,4.91,4.91,0,0,0,0,.59v2.24h-.58V50.51ZM232,54.35a1.35,1.35,0,0,0,.49,1,1.67,1.67,0,0,0,1.11.43,1.73,1.73,0,0,0,.91-.25,1.48,1.48,0,0,0,.62-.67h.6a2.26,2.26,0,0,1-2.07,1.48,2.2,2.2,0,0,1-1.59-.65,2.16,2.16,0,0,1-.65-1.58,2.2,2.2,0,0,1,2.22-2.22,2.18,2.18,0,0,1,1.71.82,1.92,1.92,0,0,1,.39.73,2.94,2.94,0,0,1,.11.88Zm3.28-.52a1.72,1.72,0,0,0-.58-1,1.59,1.59,0,0,0-1-.39,1.67,1.67,0,0,0-1.08.38,1.59,1.59,0,0,0-.57,1ZM236.65,52h.54v.62a1.08,1.08,0,0,1,.49-.54,1.54,1.54,0,0,1,.75-.17v.57a1.16,1.16,0,0,0-.77.29,1.11,1.11,0,0,0-.35.47,1.88,1.88,0,0,0-.08.64v2.38h-.58V52Z"/><path class="cls-2" d="M79,51.47a3.47,3.47,0,0,1-1.22.19,4,4,0,0,1-1.29-.19.57.57,0,0,1-.38-.39,3.83,3.83,0,0,0-.2-.58C68.54,34,61.47,17.26,53.78.93A.66.66,0,0,1,54.1.06.63.63,0,0,1,54.37,0h62.8a.65.65,0,0,1,.65.65V55.86a.65.65,0,0,1-.65.65H88.53a.65.65,0,0,1,0-1.3h28V1.3H55.39c7.34,15.61,14.43,31.34,21.6,47a10.47,10.47,0,0,0,1.09,1.51,3.34,3.34,0,0,1,.9,1.64ZM52,4.74a.66.66,0,0,1,.65.66.65.65,0,0,1-.65.65H22.2a.58.58,0,0,1-.57-.57V5.4a.66.66,0,0,1,.65-.66ZM11.22,57.19H83.91c0-5,.23-47.93-.17-48.94-.22-.56-1-.94-1-1.16s.36-.51,1.09-.51q1.41,0,1.41.9c0,16.79,0,33.58,0,50.36a.65.65,0,0,1-.65.65h-74a.65.65,0,0,1-.65-.65v-.08a.56.56,0,0,1,.57-.57Zm95.64-30.13a16,16,0,0,1-4.41,4.11,10,10,0,0,1-5.31,1.48H96.05c-.51-.13-.89-.21-1.15-.26a1,1,0,0,0-.38-.32h-.2a12.08,12.08,0,0,0,5.36-2.73,11.57,11.57,0,0,0,3.58-4.91,16.13,16.13,0,0,0,.63-4.62,14.14,14.14,0,0,0-1-5.36,11.12,11.12,0,0,0-3.22-4.27,6.86,6.86,0,0,0-3-1.74A15.42,15.42,0,0,0,92.75,8H89.37a.92.92,0,0,0-.76.42,1.35,1.35,0,0,0-.32.8V49.67c0,.17.14.39.42.67a1.19,1.19,0,0,1,.41.74c0,.39-.35.58-1.05.58a1.83,1.83,0,0,1-1.18-.42,2.08,2.08,0,0,1-.53-1.7V7.8A1.51,1.51,0,0,1,86.65,7a.81.81,0,0,1,.67-.45q8.61,0,10,.13a12.54,12.54,0,0,1,11.62,12.9,13.58,13.58,0,0,1-2,7.45Zm.12-7.83a11.18,11.18,0,0,0-6.17-10.34q1.92,2.37,2.7,3.47a11.91,11.91,0,0,1,2.31,6.87,14.25,14.25,0,0,1-.87,5.23A24.8,24.8,0,0,1,102,29.57q4.95-3.41,5-10.34ZM74.22,50.7a.6.6,0,0,1-.06.7.88.88,0,0,1-.64.26H72.36a1.06,1.06,0,0,1-1-.39,3.35,3.35,0,0,0,.19-1.1,6,6,0,0,0-.7-2.5c-.69-1.47-1-2.26-1.1-2.39-1.32-3-2.65-6-4-9a2.1,2.1,0,0,0-1-1A3.41,3.41,0,0,0,63.5,35H49.31c-.26,0-.6.42-1,1.29-.6,1.25-1,2-1.22,2.4q-2.31,5.63-4.56,11.19a1.88,1.88,0,0,0,.13.9,1.18,1.18,0,0,1,.06.85H38.9c-.08-.34.08-.66.49-1a1.5,1.5,0,0,0,.67-.84c1.37-3.31,3-7.22,5-11.77q2.63-6,5.3-12.1c1.77-4.06,3.41-7.95,4.91-11.63a4.42,4.42,0,0,0,.19-1.09A2.12,2.12,0,0,0,55,12.13,6.5,6.5,0,0,1,54.32,11a1.2,1.2,0,0,1,.19-1.09c.26-.47.49-.71.71-.71.38,0,.89.71,1.54,2.12.25.6.53,1.2.83,1.81q2.76,6.3,5.59,12.57t5.65,12.51c2.06,4.63,3.85,8.78,5.39,12.48ZM64,31.88,58.49,19.73a9.78,9.78,0,0,0-1-2c-.28-.36-.53-.55-.74-.55l-.45.25L50.08,31.69a1.23,1.23,0,0,0,0,1,.71.71,0,0,0,.7.52h12.4c.21,0,.43-.17.64-.49s.26-.59.13-.8Z"/><path class="cls-2" d="M28.74,32.68A5.82,5.82,0,0,0,29.85,31c.71-1.75-.83-6.7.07-7.54l3.66-1.89c1.05-.53,3-1.51,4.29-.83,2,1.05,1.37,7.18,1.25,9.65-.09,1.7-.23,3.46-.4,5.15s-.46,3.6-.5,5.15l.07-.1a27,27,0,0,0,1.05-3.52,42.25,42.25,0,0,0,1-12.93c-.27-3-.55-6-4.09-4.83-2.27.73-5.26,3-6.16,3.35.38-1.29,1.09-1.33,1.13-1.85a4.41,4.41,0,0,0-1.61,1,3.1,3.1,0,0,0-1,1.68c-1.21.22-1.95-.15-2-1.44s1-.79,1.47-2.26c.45-1.28-.6-5-1-6.21-.56-1.65-1.59-3.89-3-4.31A5.84,5.84,0,0,0,21,9.68a2.27,2.27,0,0,1-2.52-.94c-.66-1.85.26-4.21-2.19-5.14A4.54,4.54,0,0,0,11.1,5.24c-1.58,2.74,1.15,7.27,2.58,7.5.66.1.94-.35,1.27-.6.65-.49.75-.31,1.32,0-.62-1.51-1.76.41-2.57.17a3.7,3.7,0,0,1-1-.89A6.09,6.09,0,0,1,12,10.25c-.87-2-.76-4.72,1-5.63a4.2,4.2,0,0,1,3.27-.16c1,.39,1.3,1.15,1.46,2.37s.15,2.27,1.11,2.75A5.1,5.1,0,0,0,22,10c1.52-.19,2-.26,2.75.76a10.63,10.63,0,0,1,1.3,2.54c.55,1.39,1.56,4.9.76,6.31a6.8,6.8,0,0,1-2,1.83,26.62,26.62,0,0,1-8.25,3.21c1.14.25,4-.52,5.05-.85a23.9,23.9,0,0,0,3.25-1.23,5.34,5.34,0,0,1,1-.49c.56,1.17.88,2.09,2.7,1.88-.22,3.2,1.67,4.82-1.29,8.68a20.25,20.25,0,0,0-1.54,2.11c-1.39,2.49-.69,4.74-1.1,6.08-.51,1.68-2.5,2.28-4.08,3.1a9,9,0,0,0-3.85,3.35A12.34,12.34,0,0,1,16,48.4c-2.42,3.27-9.55,2.47-13.1,1.75C2,50,.85,49.57,0,49.44A25.57,25.57,0,0,0,4.87,51a27.29,27.29,0,0,0,5.78.7c0,.8-1.09,5.52-.53,6.45a16.35,16.35,0,0,0,.31-1.7c.39-1.84,1-3.3,1.31-4.81,2.83-.29,4.7-1.27,5.85-3C20,45,23.34,45.61,25.13,43c1.31-1.93.8-5.41,2.43-8.61.13-.24.25-.45.39-.67s.34-.45.47-.66.18-.19.32-.35ZM22.42,14c.07.51.35.65.61.93s.46.56.76.83a3.32,3.32,0,0,0-.93-1.9l-.44.14ZM6,32.05c.07-.13.32-.33.44-.49l.44-.63a6,6,0,0,0,.67-1.4c.85-2.63-.72-5.56-1.85-8.06L5.05,20c.32,2.94,3,7.19,1.59,10.85-.19.5-.44.83-.62,1.23Zm8.06-4.49a.55.55,0,0,0-.16-.12l-.46-.2c-2.42-1-3.57-2.93-4.93-5.1A18.51,18.51,0,0,0,7,20,26.42,26.42,0,0,0,9.27,25a5.33,5.33,0,0,0,4.81,2.61Zm2-5.39a2.32,2.32,0,0,1-.75-.66A24.63,24.63,0,0,0,13,19.42a5.15,5.15,0,0,0-2-1,1.54,1.54,0,0,0-1.78,1.21,2.13,2.13,0,0,1,2.18,0c1.91,1,3.6,3.73,5.14,3,1.9-.86,4.42-4.63,4.7-6.63a13.57,13.57,0,0,1-1,1.77,14.67,14.67,0,0,1-1.31,1.47,30.71,30.71,0,0,0-2.78,2.81ZM1.37,45.85A11.76,11.76,0,0,0,8,44c4.39-2.86,6.43-8.3,8.2-13.15a30.8,30.8,0,0,0,1.06-3.09L16,30.71c-.43,1-.91,2-1.41,2.86a38.76,38.76,0,0,1-4.69,7c-.21.22-.29.38-.49.58a26.81,26.81,0,0,1-2.22,2,12,12,0,0,1-5.82,2.6ZM10,16c-1.88-.54-2.29.46-3.17-.73a1.46,1.46,0,0,0-1.16-.76C4.21,14.33,3,15.62,2.45,17a3.7,3.7,0,0,0,0,3.17,3.32,3.32,0,0,0-.95,2.93c.23,2.13,1.43,4.23,1.39,6.47a4.94,4.94,0,0,1-1,2.91A5.26,5.26,0,0,0,3.29,30c.83-3-1.46-5.85-.85-8.19.27-1.05.61-.87.37-1.3-1.11-2,1.43-6.48,3.34-5.14.43.31.43.82,1,1,1,.26,1.67-.6,3.36,0-.58-.73.17-1.73.53-1.87a4.4,4.4,0,0,1,1.91,0l.31,0,.34.14A1.14,1.14,0,0,0,13,15c.82,0,1.79-.48,2.77-.49a2.17,2.17,0,0,1,1.27.37,3.52,3.52,0,0,1,.77.91,1.89,1.89,0,0,0-2.69-1.93c-.44.14-.87.42-1.18.52s-1.94-.55-2.73-.51c-1.16.05-1.32.93-1.24,2.09ZM32.33,34.07a30,30,0,0,1-.92-2.88c-.14.22,0,.64,0,.87,1.33,8.71,3.59,16.16,4.11,25.09.5-1.23.25-5.73.11-7.26a80.51,80.51,0,0,0-2.46-12.83c-.27-1-.56-2-.86-3Z"/></g></g></svg>